<?xml version="1.0" encoding="UTF-8" standalone="no"?>
<!-- Generator: Adobe Illustrator 17.0.0, SVG Export Plug-In . SVG Version: 6.00 Build 0)  -->

<svg
   xmlns:dc="http://purl.org/dc/elements/1.1/"
   xmlns:cc="http://creativecommons.org/ns#"
   xmlns:rdf="http://www.w3.org/1999/02/22-rdf-syntax-ns#"
   xmlns:svg="http://www.w3.org/2000/svg"
   xmlns="http://www.w3.org/2000/svg"
   xmlns:sodipodi="http://sodipodi.sourceforge.net/DTD/sodipodi-0.dtd"
   xmlns:inkscape="http://www.inkscape.org/namespaces/inkscape"
   version="1.1"
   id="Capa_1"
   x="0px"
   y="0px"
   width="433.701px"
   height="155.906px"
   viewBox="0 0 433.701 155.906"
   enable-background="new 0 0 433.701 155.906"
   xml:space="preserve"
   sodipodi:docname="logo.svg"
   inkscape:version="0.92.4 (5da689c313, 2019-01-14)"><metadata
   id="metadata146"><rdf:RDF><cc:Work
       rdf:about=""><dc:format>image/svg+xml</dc:format><dc:type
         rdf:resource="http://purl.org/dc/dcmitype/StillImage" /><dc:title /></cc:Work></rdf:RDF></metadata><defs
   id="defs144" /><sodipodi:namedview
   pagecolor="#ffffff"
   bordercolor="#666666"
   borderopacity="1"
   objecttolerance="10"
   gridtolerance="10"
   guidetolerance="10"
   inkscape:pageopacity="0"
   inkscape:pageshadow="2"
   inkscape:window-width="1920"
   inkscape:window-height="1137"
   id="namedview142"
   showgrid="false"
   inkscape:zoom="1.4632854"
   inkscape:cx="216.85049"
   inkscape:cy="77.953003"
   inkscape:window-x="-8"
   inkscape:window-y="-8"
   inkscape:window-maximized="1"
   inkscape:current-layer="Capa_1" />
<g
   id="g139"
   transform="translate(-2.050181,23.235385)">
	<g
   id="g99">
		<g
   id="g97">
			<path
   d="m 36.602,5.853 v 101.244 h -4.435 c -1.296,0 -2.359,-0.245 -3.19,-0.74 -0.831,-0.493 -1.478,-1.085 -1.941,-1.777 -0.462,-0.689 -0.809,-1.405 -1.04,-2.146 -0.232,-0.74 -0.394,-1.355 -0.484,-1.85 L 15.116,50.555 v 56.543 H 5.474 V 5.853 h 4.408 c 2.755,0 4.522,0.569 5.303,1.702 0.779,1.135 1.308,2.442 1.584,3.923 L 26.961,64.172 V 5.853 Z"
   id="path79"
   inkscape:connector-curvature="0"
   style="fill:#242424" />
			<path
   d="m 72.689,7.259 c 0.551,0.938 0.827,1.801 0.827,2.59 v 97.248 h -6.887 c -1.101,0 -1.814,-0.245 -2.135,-0.74 -0.323,-0.493 -0.53,-0.985 -0.62,-1.481 V 5.853 h 5.785 c 1.467,0 2.479,0.47 3.03,1.406 z"
   id="path81"
   inkscape:connector-curvature="0"
   style="fill:#242424" />
			<path
   d="M 133.705,107.097 H 123.513 L 110.566,61.655 v 45.442 h -9.641 V 9.405 c 0,-1.677 0.396,-2.761 1.188,-3.256 0.792,-0.492 1.466,-0.74 2.025,-0.74 h 6.429 V 42.413 L 122.549,5.705 h 9.917 l -15.013,45.738 z"
   id="path83"
   inkscape:connector-curvature="0"
   style="fill:#242424" />
			<path
   d="m 181.5,9.257 c 2.294,2.467 3.443,5.427 3.443,8.881 v 76.97 c 0,1.777 -0.299,3.404 -0.895,4.884 -0.598,1.48 -1.425,2.789 -2.479,3.923 -1.057,1.135 -2.296,2.05 -3.719,2.738 -1.425,0.689 -2.916,1.085 -4.476,1.183 h -7.438 c -3.306,0 -6.129,-1.233 -8.471,-3.7 -2.341,-2.465 -3.513,-5.476 -3.513,-9.029 V 18.139 c 0,-3.552 1.171,-6.587 3.513,-9.103 2.341,-2.515 5.165,-3.774 8.471,-3.774 h 7.438 c 3.12,0.198 5.829,1.529 8.126,3.995 z m -7.714,87.923 c 1.01,-1.085 1.515,-2.417 1.515,-3.997 V 19.915 c 0,-1.577 -0.506,-2.909 -1.515,-3.997 -1.012,-1.085 -2.251,-1.628 -3.719,-1.628 h -1.515 c -1.378,0.099 -2.548,0.666 -3.513,1.702 -0.964,1.036 -1.446,2.346 -1.446,3.923 v 73.269 c 0,1.58 0.482,2.887 1.446,3.922 0.964,1.036 2.18,1.606 3.65,1.702 h 1.378 c 1.468,0 2.708,-0.541 3.719,-1.628 z"
   id="path85"
   inkscape:connector-curvature="0"
   style="fill:#242424" />
			<path
   d="M 244.307,107.097 H 233.7 l -8.401,-69.864 -8.54,69.864 H 206.153 L 220.478,5.853 h 5.097 c 2.111,0 3.465,0.569 4.062,1.702 0.595,1.135 0.986,2.393 1.171,3.775 z"
   id="path87"
   inkscape:connector-curvature="0"
   style="fill:#E78800" />
			<path
   d="m 294.993,94.96 c 0,3.456 -1.125,6.415 -3.375,8.881 -2.251,2.468 -4.982,3.798 -8.195,3.997 h -6.06 c -3.305,0 -6.107,-1.258 -8.402,-3.774 -2.296,-2.515 -3.443,-5.551 -3.443,-9.103 V 18.139 c 0,-3.552 1.148,-6.587 3.443,-9.103 2.294,-2.515 5.096,-3.774 8.402,-3.774 h 6.06 c 3.213,0.2 5.944,1.531 8.195,3.997 2.249,2.467 3.375,5.427 3.375,8.881 v 6.513 c 0,1.679 -0.275,2.937 -0.826,3.775 -0.551,0.84 -1.15,1.457 -1.79,1.85 -0.461,0.199 -1.447,0.666 -2.962,1.406 -1.515,0.74 -2.871,1.406 -4.063,1.998 V 19.767 c 0,-1.48 -0.506,-2.761 -1.515,-3.848 -1.01,-1.085 -2.204,-1.628 -3.58,-1.628 -1.47,0 -2.686,0.543 -3.651,1.628 -0.964,1.087 -1.446,2.368 -1.446,3.848 v 73.565 c 0,1.481 0.482,2.764 1.446,3.848 0.965,1.087 2.181,1.628 3.651,1.628 1.378,0 2.569,-0.541 3.58,-1.628 1.009,-1.085 1.515,-2.369 1.515,-3.848 V 63.285 h -0.413 c -0.461,0 -0.874,-0.149 -1.24,-0.445 -0.368,-0.196 -0.736,-0.518 -1.101,-0.962 -0.367,-0.444 -0.736,-1.06 -1.101,-1.85 l -3.305,-7.105 h 12.121 c 1.378,0 2.5,0.421 3.375,1.259 0.871,0.84 1.308,2.245 1.308,4.219 v 36.56 l -0.003,-0.001 z"
   id="path89"
   inkscape:connector-curvature="0"
   style="fill:#242424" />
			<path
   d="m 328.05,7.259 c 0.551,0.938 0.827,1.801 0.827,2.59 v 97.248 h -6.888 c -1.101,0 -1.813,-0.245 -2.135,-0.74 -0.323,-0.493 -0.529,-0.985 -0.62,-1.481 V 5.853 h 5.785 c 1.469,0 2.481,0.47 3.031,1.406 z"
   id="path91"
   inkscape:connector-curvature="0"
   style="fill:#242424" />
			<path
   d="m 387.829,96.736 c -0.461,1.383 -1.033,2.864 -1.722,4.441 -0.689,1.58 -1.125,2.616 -1.308,3.109 -0.367,0.692 -0.943,1.332 -1.722,1.924 -0.781,0.592 -1.952,0.888 -3.513,0.888 H 356.425 V 5.853 h 6.749 c 0.826,0 1.515,0.296 2.066,0.888 0.55,0.592 0.826,1.332 0.826,2.22 v 87.774 l 21.763,0.001 z"
   id="path93"
   inkscape:connector-curvature="0"
   style="fill:#242424" />
			<path
   d="m 409.316,96.736 h 20.247 c 0.641,0 0.871,0.369 0.689,1.11 -0.186,0.741 -0.53,1.58 -1.033,2.515 -0.506,0.939 -1.057,1.802 -1.653,2.592 -0.598,0.791 -0.989,1.235 -1.172,1.332 -0.275,0.692 -0.805,1.332 -1.583,1.924 -0.782,0.592 -1.953,0.888 -3.513,0.888 H 399.673 V 8.813 c 0,-0.888 0.297,-1.603 0.896,-2.146 0.595,-0.541 1.261,-0.814 1.997,-0.814 h 25.205 c 0.642,0 0.872,0.37 0.689,1.11 -0.185,0.74 -0.529,1.554 -1.033,2.442 -0.505,0.888 -1.057,1.728 -1.653,2.516 -0.598,0.791 -0.988,1.235 -1.172,1.332 -0.275,0.691 -0.804,1.358 -1.583,1.998 -0.781,0.643 -1.952,0.963 -3.512,0.963 h -7.852 c -0.644,0 -1.195,0.224 -1.653,0.67 -0.461,0.447 -0.689,1.016 -0.689,1.709 v 30.332 h 14.6 c 0.641,0 0.896,0.367 0.757,1.095 -0.138,0.73 -0.461,1.556 -0.964,2.482 -0.506,0.925 -1.08,1.776 -1.722,2.553 -0.644,0.779 -1.057,1.216 -1.239,1.313 -0.276,0.779 -0.805,1.462 -1.584,2.045 -0.781,0.584 -1.952,0.875 -3.512,0.875 l -3.994,-0.149 c -0.644,0 -1.195,0.247 -1.653,0.74 -0.461,0.496 -0.689,1.087 -0.689,1.777 l 0.003,35.08 z"
   id="path95"
   inkscape:connector-curvature="0"
   style="fill:#242424" />
		</g>
	</g>
	<g
   id="g137">
		<g
   id="g135">

















		</g>
	</g>
</g>
</svg>
